<?xml version="1.0" encoding="UTF-8" standalone="no"?>
<!DOCTYPE svg PUBLIC "-//W3C//DTD SVG 1.1//EN" "http://www.w3.org/Graphics/SVG/1.1/DTD/svg11.dtd">
<svg width="100%" height="100%" viewBox="0 0 561 79" version="1.1" xmlns="http://www.w3.org/2000/svg" xmlns:xlink="http://www.w3.org/1999/xlink" xml:space="preserve" xmlns:serif="http://www.serif.com/" style="fill-rule:evenodd;clip-rule:evenodd;stroke-linejoin:round;stroke-miterlimit:2;">
    <g transform="matrix(1,0,0,1,-339.283,-2749.15)">
        <g transform="matrix(0.583704,0,0,0.253848,180.334,2167.87)">
            <path d="M563.044,2413L563.044,2351.44L509.506,2351.44L509.506,2289.89L563.044,2289.89L563.044,2351.44L589.812,2351.44L589.812,2413L563.044,2413ZM509.506,2597.65L509.506,2536.1L482.738,2536.1L482.738,2351.44L509.506,2351.44L509.506,2536.1L563.044,2536.1L563.044,2597.65L509.506,2597.65ZM563.044,2536.1L563.044,2474.55L589.812,2474.55L589.812,2536.1L563.044,2536.1Z" style="fill:rgb(229,37,31);fill-rule:nonzero;"/>
        </g>
        <g transform="matrix(0.807519,0,0,0.72691,-21.8491,737.995)">
            <rect x="524.61" y="2766.72" width="19.349" height="21.495" style="fill:rgb(229,170,31);"/>
        </g>
        <g transform="matrix(0.807519,0,0,0.72691,-21.8491,753.62)">
            <rect x="524.61" y="2766.72" width="19.349" height="21.495" style="fill:rgb(246,255,0);"/>
        </g>
        <g transform="matrix(0.807519,0,0,0.72691,-21.8491,769.245)">
            <rect x="524.61" y="2766.72" width="19.349" height="21.495" style="fill:rgb(31,229,66);"/>
        </g>
        <g transform="matrix(0.807519,0,0,0.72691,-21.8491,784.87)">
            <rect x="524.61" y="2766.72" width="19.349" height="21.495" style="fill:rgb(36,31,229);"/>
        </g>
        <g transform="matrix(0.807519,0,0,0.72691,-21.8491,800.495)">
            <rect x="524.61" y="2766.72" width="19.349" height="21.495" style="fill:rgb(31,229,218);"/>
        </g>
        <g transform="matrix(0.807519,0,0,0.72691,-37.4741,800.495)">
            <rect x="524.61" y="2766.72" width="19.349" height="21.495" style="fill:rgb(210,176,28);"/>
        </g>
        <g transform="matrix(0.807519,0,0,0.72691,-53.0991,800.495)">
            <rect x="524.61" y="2766.72" width="19.349" height="21.495" style="fill:rgb(201,127,72);"/>
        </g>
        <g transform="matrix(0.807519,0,0,0.72691,-84.3491,800.495)">
            <rect x="524.61" y="2766.72" width="19.349" height="21.495" style="fill:rgb(61,61,61);"/>
        </g>
        <g transform="matrix(0.807519,0,0,0.72691,-68.7241,800.495)">
            <rect x="524.61" y="2766.72" width="19.349" height="21.495" style="fill:rgb(65,66,91);"/>
        </g>
        <g transform="matrix(0.807519,0,0,0.72691,-37.4741,784.87)">
            <rect x="524.61" y="2766.72" width="19.349" height="21.495" style="fill:rgb(110,181,51);"/>
        </g>
        <g transform="matrix(0.807519,0,0,0.72691,-53.0991,784.87)">
            <rect x="524.61" y="2766.72" width="19.349" height="21.495" style="fill:rgb(212,207,83);"/>
        </g>
        <g transform="matrix(0.807519,0,0,0.72691,-84.3491,784.87)">
            <rect x="524.61" y="2766.72" width="19.349" height="21.495" style="fill:rgb(195,195,195);"/>
        </g>
        <g transform="matrix(0.807519,0,0,0.72691,-68.7241,784.87)">
            <rect x="524.61" y="2766.72" width="19.349" height="21.495" style="fill:rgb(202,132,130);"/>
        </g>
        <g transform="matrix(0.807519,0,0,0.72691,-37.4741,769.245)">
            <rect x="524.61" y="2766.72" width="19.349" height="21.495" style="fill:rgb(196,39,139);"/>
        </g>
        <g transform="matrix(0.807519,0,0,0.72691,-53.0991,769.245)">
            <rect x="524.61" y="2766.72" width="19.349" height="21.495" style="fill:rgb(89,178,122);"/>
        </g>
        <g transform="matrix(0.807519,0,0,0.72691,-84.3491,769.245)">
            <rect x="524.61" y="2766.72" width="19.349" height="21.495" style="fill:rgb(70,70,70);"/>
        </g>
        <g transform="matrix(0.807519,0,0,0.72691,-68.7241,769.245)">
            <rect x="524.61" y="2766.72" width="19.349" height="21.495" style="fill:rgb(74,96,39);"/>
        </g>
        <g transform="matrix(0.807519,0,0,0.72691,-37.4741,753.62)">
            <rect x="524.61" y="2766.72" width="19.349" height="21.495" style="fill:rgb(216,72,67);"/>
        </g>
        <g transform="matrix(0.807519,0,0,0.72691,-53.0991,753.62)">
            <rect x="524.61" y="2766.72" width="19.349" height="21.495" style="fill:rgb(106,85,203);"/>
        </g>
        <g transform="matrix(0.807519,0,0,0.72691,-84.3491,753.62)">
            <rect x="524.61" y="2766.72" width="19.349" height="21.495" style="fill:rgb(109,109,109);"/>
        </g>
        <g transform="matrix(0.807519,0,0,0.72691,-68.7241,753.62)">
            <rect x="524.61" y="2766.72" width="19.349" height="21.495" style="fill:rgb(207,184,124);"/>
        </g>
        <g transform="matrix(0.807519,0,0,0.72691,-37.4741,737.995)">
            <rect x="524.61" y="2766.72" width="19.349" height="21.495" style="fill:rgb(53,180,194);"/>
        </g>
        <g transform="matrix(0.807519,0,0,0.72691,-53.0991,737.995)">
            <rect x="524.61" y="2766.72" width="19.349" height="21.495" style="fill:rgb(208,150,148);"/>
        </g>
        <g transform="matrix(0.807519,0,0,0.72691,-84.3491,737.995)">
            <rect x="524.61" y="2766.72" width="19.349" height="21.495"/>
        </g>
        <g transform="matrix(0.807519,0,0,0.72691,-68.7241,737.995)">
            <rect x="524.61" y="2766.72" width="19.349" height="21.495" style="fill:rgb(150,179,172);"/>
        </g>
        <g transform="matrix(0.583704,0,0,0.253848,180.334,2167.87)">
            <path d="M696.887,2597.65L696.887,2413L670.118,2413L670.118,2351.44L643.35,2351.44L643.35,2289.89L670.118,2289.89L670.118,2351.44L696.887,2351.44L696.887,2413L723.656,2413L723.656,2597.65L696.887,2597.65ZM750.425,2351.44L750.425,2289.89L777.193,2289.89L777.193,2351.44L750.425,2351.44ZM723.656,2413L723.656,2351.44L750.425,2351.44L750.425,2413L723.656,2413Z" style="fill:rgb(229,37,31);fill-rule:nonzero;"/>
        </g>
        <g transform="matrix(0.583704,0,0,0.253848,180.334,2167.87)">
            <path d="M830.731,2597.65L830.731,2289.89L911.037,2289.89L911.037,2351.44L937.805,2351.44L937.805,2536.1L911.037,2536.1L911.037,2597.65L830.731,2597.65ZM857.499,2413L909.966,2413L909.966,2351.44L857.499,2351.44L857.499,2413ZM857.499,2536.1L909.966,2536.1L909.966,2474.55L857.499,2474.55L857.499,2536.1Z" style="fill:rgb(229,37,31);fill-rule:nonzero;"/>
        </g>
        <g transform="matrix(0.583704,0,0,0.253848,180.334,2167.87)">
            <path d="M991.343,2597.65L991.343,2289.89L1071.65,2289.89L1071.65,2351.44L1018.11,2351.44L1018.11,2413L1071.65,2413L1071.65,2474.55L1018.11,2474.55L1018.11,2536.1L1071.65,2536.1L1071.65,2597.65L991.343,2597.65Z" style="fill:rgb(229,37,31);fill-rule:nonzero;"/>
        </g>
        <g transform="matrix(0.583704,0,0,0.253848,180.334,2167.87)">
            <path d="M1125.19,2597.65L1125.19,2289.89L1205.49,2289.89L1205.49,2351.44L1232.26,2351.44L1232.26,2413L1205.49,2413L1205.49,2536.1L1232.26,2536.1L1232.26,2597.65L1205.49,2597.65L1205.49,2536.1L1178.72,2536.1L1178.72,2474.55L1151.95,2474.55L1151.95,2597.65L1125.19,2597.65ZM1151.95,2413L1204.42,2413L1204.42,2351.44L1151.95,2351.44L1151.95,2413Z" style="fill:rgb(229,37,31);fill-rule:nonzero;"/>
        </g>
    </g>
</svg>
